<svg width="59" height="12" viewBox="0 0 59 12" fill="none" xmlns="http://www.w3.org/2000/svg">
<path d="M5.016 9.144C4.368 9.144 3.764 9.04 3.204 8.832C2.652 8.616 2.172 8.312 1.764 7.92C1.356 7.528 1.036 7.068 0.804 6.54C0.58 6.012 0.468 5.432 0.468 4.8C0.468 4.168 0.58 3.588 0.804 3.06C1.036 2.532 1.356 2.072 1.764 1.68C2.18 1.288 2.664 0.987999 3.216 0.779999C3.768 0.564 4.372 0.456 5.028 0.456C5.756 0.456 6.412 0.584 6.996 0.84C7.588 1.088 8.084 1.456 8.484 1.944L7.236 3.096C6.948 2.768 6.628 2.524 6.276 2.364C5.924 2.196 5.54 2.112 5.124 2.112C4.732 2.112 4.372 2.176 4.044 2.304C3.716 2.432 3.432 2.616 3.192 2.856C2.952 3.096 2.764 3.38 2.628 3.708C2.5 4.036 2.436 4.4 2.436 4.8C2.436 5.2 2.5 5.564 2.628 5.892C2.764 6.22 2.952 6.504 3.192 6.744C3.432 6.984 3.716 7.168 4.044 7.296C4.372 7.424 4.732 7.488 5.124 7.488C5.54 7.488 5.924 7.408 6.276 7.248C6.628 7.08 6.948 6.828 7.236 6.492L8.484 7.644C8.084 8.132 7.588 8.504 6.996 8.76C6.412 9.016 5.752 9.144 5.016 9.144ZM13.5896 9V7.74L13.4696 7.464V5.208C13.4696 4.808 13.3456 4.496 13.0976 4.272C12.8576 4.048 12.4856 3.936 11.9816 3.936C11.6376 3.936 11.2976 3.992 10.9616 4.104C10.6336 4.208 10.3536 4.352 10.1216 4.536L9.44963 3.228C9.80163 2.98 10.2256 2.788 10.7216 2.652C11.2176 2.516 11.7216 2.448 12.2336 2.448C13.2176 2.448 13.9816 2.68 14.5256 3.144C15.0696 3.608 15.3416 4.332 15.3416 5.316V9H13.5896ZM11.6216 9.096C11.1176 9.096 10.6856 9.012 10.3256 8.844C9.96563 8.668 9.68963 8.432 9.49763 8.136C9.30563 7.84 9.20963 7.508 9.20963 7.14C9.20963 6.756 9.30163 6.42 9.48563 6.132C9.67763 5.844 9.97763 5.62 10.3856 5.46C10.7936 5.292 11.3256 5.208 11.9816 5.208H13.6976V6.3H12.1856C11.7456 6.3 11.4416 6.372 11.2736 6.516C11.1136 6.66 11.0336 6.84 11.0336 7.056C11.0336 7.296 11.1256 7.488 11.3096 7.632C11.5016 7.768 11.7616 7.836 12.0896 7.836C12.4016 7.836 12.6816 7.764 12.9296 7.62C13.1776 7.468 13.3576 7.248 13.4696 6.96L13.7576 7.824C13.6216 8.24 13.3736 8.556 13.0136 8.772C12.6536 8.988 12.1896 9.096 11.6216 9.096ZM17.0359 9V2.544H18.8239V4.368L18.5719 3.84C18.7639 3.384 19.0719 3.04 19.4959 2.808C19.9199 2.568 20.4359 2.448 21.0439 2.448V4.176C20.9639 4.168 20.8919 4.164 20.8279 4.164C20.7639 4.156 20.6959 4.152 20.6239 4.152C20.1119 4.152 19.6959 4.3 19.3759 4.596C19.0639 4.884 18.9079 5.336 18.9079 5.952V9H17.0359ZM24.9904 9.144C24.3184 9.144 23.6744 9.056 23.0584 8.88C22.4424 8.696 21.9464 8.46 21.5704 8.172L22.2304 6.708C22.5904 6.964 23.0144 7.176 23.5024 7.344C23.9984 7.504 24.4984 7.584 25.0024 7.584C25.3864 7.584 25.6944 7.548 25.9264 7.476C26.1664 7.396 26.3424 7.288 26.4544 7.152C26.5664 7.016 26.6224 6.86 26.6224 6.684C26.6224 6.46 26.5344 6.284 26.3584 6.156C26.1824 6.02 25.9504 5.912 25.6624 5.832C25.3744 5.744 25.0544 5.664 24.7024 5.592C24.3584 5.512 24.0104 5.416 23.6584 5.304C23.3144 5.192 22.9984 5.048 22.7104 4.872C22.4224 4.696 22.1864 4.464 22.0024 4.176C21.8264 3.888 21.7384 3.52 21.7384 3.072C21.7384 2.592 21.8664 2.156 22.1224 1.764C22.3864 1.364 22.7784 1.048 23.2984 0.816C23.8264 0.576 24.4864 0.456 25.2784 0.456C25.8064 0.456 26.3264 0.52 26.8384 0.648C27.3504 0.767999 27.8024 0.951999 28.1944 1.2L27.5944 2.676C27.2024 2.452 26.8104 2.288 26.4184 2.184C26.0264 2.072 25.6424 2.016 25.2664 2.016C24.8904 2.016 24.5824 2.06 24.3424 2.148C24.1024 2.236 23.9304 2.352 23.8264 2.496C23.7224 2.632 23.6704 2.792 23.6704 2.976C23.6704 3.192 23.7584 3.368 23.9344 3.504C24.1104 3.632 24.3424 3.736 24.6304 3.816C24.9184 3.896 25.2344 3.976 25.5784 4.056C25.9304 4.136 26.2784 4.228 26.6224 4.332C26.9744 4.436 27.2944 4.576 27.5824 4.752C27.8704 4.928 28.1024 5.16 28.2784 5.448C28.4624 5.736 28.5544 6.1 28.5544 6.54C28.5544 7.012 28.4224 7.444 28.1584 7.836C27.8944 8.228 27.4984 8.544 26.9704 8.784C26.4504 9.024 25.7904 9.144 24.9904 9.144ZM32.8707 9.096C32.1747 9.096 31.5547 8.956 31.0107 8.676C30.4667 8.388 30.0387 7.992 29.7267 7.488C29.4227 6.984 29.2707 6.412 29.2707 5.772C29.2707 5.124 29.4227 4.552 29.7267 4.056C30.0387 3.552 30.4667 3.16 31.0107 2.88C31.5547 2.592 32.1747 2.448 32.8707 2.448C33.5507 2.448 34.1427 2.592 34.6467 2.88C35.1507 3.16 35.5227 3.564 35.7627 4.092L34.3107 4.872C34.1427 4.568 33.9307 4.344 33.6747 4.2C33.4267 4.056 33.1547 3.984 32.8587 3.984C32.5387 3.984 32.2507 4.056 31.9947 4.2C31.7387 4.344 31.5347 4.548 31.3827 4.812C31.2387 5.076 31.1667 5.396 31.1667 5.772C31.1667 6.148 31.2387 6.468 31.3827 6.732C31.5347 6.996 31.7387 7.2 31.9947 7.344C32.2507 7.488 32.5387 7.56 32.8587 7.56C33.1547 7.56 33.4267 7.492 33.6747 7.356C33.9307 7.212 34.1427 6.984 34.3107 6.672L35.7627 7.464C35.5227 7.984 35.1507 8.388 34.6467 8.676C34.1427 8.956 33.5507 9.096 32.8707 9.096ZM40.8006 9V7.74L40.6806 7.464V5.208C40.6806 4.808 40.5566 4.496 40.3086 4.272C40.0686 4.048 39.6966 3.936 39.1926 3.936C38.8486 3.936 38.5086 3.992 38.1726 4.104C37.8446 4.208 37.5646 4.352 37.3326 4.536L36.6606 3.228C37.0126 2.98 37.4366 2.788 37.9326 2.652C38.4286 2.516 38.9326 2.448 39.4446 2.448C40.4286 2.448 41.1926 2.68 41.7366 3.144C42.2806 3.608 42.5526 4.332 42.5526 5.316V9H40.8006ZM38.8326 9.096C38.3286 9.096 37.8966 9.012 37.5366 8.844C37.1766 8.668 36.9006 8.432 36.7086 8.136C36.5166 7.84 36.4206 7.508 36.4206 7.14C36.4206 6.756 36.5126 6.42 36.6966 6.132C36.8886 5.844 37.1886 5.62 37.5966 5.46C38.0046 5.292 38.5366 5.208 39.1926 5.208H40.9086V6.3H39.3966C38.9566 6.3 38.6526 6.372 38.4846 6.516C38.3246 6.66 38.2446 6.84 38.2446 7.056C38.2446 7.296 38.3366 7.488 38.5206 7.632C38.7126 7.768 38.9726 7.836 39.3006 7.836C39.6126 7.836 39.8926 7.764 40.1406 7.62C40.3886 7.468 40.5686 7.248 40.6806 6.96L40.9686 7.824C40.8326 8.24 40.5846 8.556 40.2246 8.772C39.8646 8.988 39.4006 9.096 38.8326 9.096ZM48.0628 9.096C47.5188 9.096 47.0428 8.976 46.6348 8.736C46.2268 8.496 45.9068 8.132 45.6748 7.644C45.4508 7.148 45.3388 6.524 45.3388 5.772C45.3388 5.012 45.4468 4.388 45.6628 3.9C45.8788 3.412 46.1908 3.048 46.5988 2.808C47.0068 2.568 47.4948 2.448 48.0628 2.448C48.6708 2.448 49.2148 2.588 49.6948 2.868C50.1828 3.14 50.5668 3.524 50.8468 4.02C51.1348 4.516 51.2788 5.1 51.2788 5.772C51.2788 6.452 51.1348 7.04 50.8468 7.536C50.5668 8.032 50.1828 8.416 49.6948 8.688C49.2148 8.96 48.6708 9.096 48.0628 9.096ZM44.2468 11.328V2.544H46.0348V3.864L45.9988 5.784L46.1188 7.692V11.328H44.2468ZM47.7388 7.56C48.0508 7.56 48.3268 7.488 48.5668 7.344C48.8148 7.2 49.0108 6.996 49.1548 6.732C49.3068 6.46 49.3828 6.14 49.3828 5.772C49.3828 5.396 49.3068 5.076 49.1548 4.812C49.0108 4.548 48.8148 4.344 48.5668 4.2C48.3268 4.056 48.0508 3.984 47.7388 3.984C47.4268 3.984 47.1468 4.056 46.8988 4.2C46.6508 4.344 46.4548 4.548 46.3108 4.812C46.1668 5.076 46.0948 5.396 46.0948 5.772C46.0948 6.14 46.1668 6.46 46.3108 6.732C46.4548 6.996 46.6508 7.2 46.8988 7.344C47.1468 7.488 47.4268 7.56 47.7388 7.56ZM55.736 9.096C55 9.096 54.352 8.952 53.792 8.664C53.24 8.376 52.812 7.984 52.508 7.488C52.204 6.984 52.052 6.412 52.052 5.772C52.052 5.124 52.2 4.552 52.496 4.056C52.8 3.552 53.212 3.16 53.732 2.88C54.252 2.592 54.84 2.448 55.496 2.448C56.128 2.448 56.696 2.584 57.2 2.856C57.712 3.12 58.116 3.504 58.412 4.008C58.708 4.504 58.856 5.1 58.856 5.796C58.856 5.868 58.852 5.952 58.844 6.048C58.836 6.136 58.828 6.22 58.82 6.3H53.576V5.208H57.836L57.116 5.532C57.116 5.196 57.048 4.904 56.912 4.656C56.776 4.408 56.588 4.216 56.348 4.08C56.108 3.936 55.828 3.864 55.508 3.864C55.188 3.864 54.904 3.936 54.656 4.08C54.416 4.216 54.228 4.412 54.092 4.668C53.956 4.916 53.888 5.212 53.888 5.556V5.844C53.888 6.196 53.964 6.508 54.116 6.78C54.276 7.044 54.496 7.248 54.776 7.392C55.064 7.528 55.4 7.596 55.784 7.596C56.128 7.596 56.428 7.544 56.684 7.44C56.948 7.336 57.188 7.18 57.404 6.972L58.4 8.052C58.104 8.388 57.732 8.648 57.284 8.832C56.836 9.008 56.32 9.096 55.736 9.096Z" fill="white"/>
</svg>
